<?xml version="1.0" standalone="yes"?>

<svg version="1.1" viewBox="0.0 0.0 260.0 260.0" fill="none" stroke="none" stroke-linecap="square" stroke-miterlimit="10" xmlns="http://www.w3.org/2000/svg" xmlns:xlink="http://www.w3.org/1999/xlink"><clipPath id="p.0"><path d="m0 0l260.0 0l0 260.0l-260.0 0l0 -260.0z" clip-rule="nonzero"></path></clipPath><g clip-path="url(#p.0)"><path fill="#000000" fill-opacity="0.0" d="m0 0l260.0 0l0 260.0l-260.0 0z" fill-rule="nonzero"></path><path fill="#2f733f" d="m0 130.0l0 0c0 -71.79701 58.202984 -130.0 130.0 -130.0l0 0c34.47815 0 67.54416 13.696389 91.92389 38.07612c24.379715 24.37973 38.07611 57.44574 38.07611 91.92388l0 0c0 71.79701 -58.202988 130.0 -130.0 130.0l0 0c-71.79701 0 -130.0 -58.202988 -130.0 -130.0z" fill-rule="nonzero"></path><path stroke="#999999" stroke-width="1.0" stroke-linejoin="round" stroke-linecap="butt" d="m0 130.0l0 0c0 -71.79701 58.202984 -130.0 130.0 -130.0l0 0c34.47815 0 67.54416 13.696389 91.92389 38.07612c24.379715 24.37973 38.07611 57.44574 38.07611 91.92388l0 0c0 71.79701 -58.202988 130.0 -130.0 130.0l0 0c-71.79701 0 -130.0 -58.202988 -130.0 -130.0z" fill-rule="nonzero"></path><path fill="#000000" fill-opacity="0.0" d="m0.4566929 -0.2965879l260.0 0l0 260.0l-260.0 0z" fill-rule="nonzero"></path><path fill="#f3f3f3" d="m29.961554 167.94841l7.062498 -1.015625l30.062504 -85.9375l20.296875 0l29.859375 85.9375l7.0625 1.015625l0 11.875l-33.671875 0l0 -11.875l6.859375 -1.21875l-4.34375 -13.578125l-32.031254 0l-4.34375 13.578125l6.859375 1.21875l0 11.875l-33.671875 0l0 -11.875zm35.84375 -29.390625l22.65625 0l-11.125 -34.8125l-0.40625 0l-11.125 34.8125z" fill-rule="nonzero"></path><path fill="#f3f3f3" d="m138.41241 167.94841l10.53125 -2.03125l0 -70.9375l-10.53125 -2.03125l0 -11.953125l40.390625 0l0 11.953125l-10.046875 2.03125l0 26.40625l8.625 0l19.0 -27.625l-5.84375 -0.8125l0 -11.953125l39.171875 0l0 11.953125l-10.734375 1.828125l-24.296875 32.453125l27.28125 39.015625l9.921875 1.703125l0 11.875l-39.171875 0l0 -11.875l6.109375 -0.8125l-19.0 -28.578125l-11.0625 0l0 27.359375l10.046875 2.03125l0 11.875l-40.390625 0l0 -11.875z" fill-rule="nonzero"></path></g></svg>

